<svg xmlns="http://www.w3.org/2000/svg" xmlns:xlink="http://www.w3.org/1999/xlink" width="500" zoomAndPan="magnify" viewBox="0 0 375 374.999991" height="500" preserveAspectRatio="xMidYMid meet" version="1.0"><defs><g/><clipPath id="eea29faba4"><path d="M 270 102 L 323 102 L 323 195 L 270 195 Z M 270 102 " clip-rule="nonzero"/></clipPath><clipPath id="cadf708859"><path d="M 219.351562 99.675781 L 342.289062 103.558594 L 337.574219 252.734375 L 214.636719 248.851562 Z M 219.351562 99.675781 " clip-rule="nonzero"/></clipPath><clipPath id="b74a06b095"><path d="M 219.351562 99.675781 L 342.289062 103.558594 L 337.574219 252.734375 L 214.636719 248.851562 Z M 219.351562 99.675781 " clip-rule="nonzero"/></clipPath><clipPath id="61e35b0505"><path d="M 219.351562 99.675781 L 342.289062 103.558594 L 337.574219 252.734375 L 214.636719 248.851562 Z M 219.351562 99.675781 " clip-rule="nonzero"/></clipPath><clipPath id="975b991e17"><path d="M 217 104 L 340 104 L 340 251 L 217 251 Z M 217 104 " clip-rule="nonzero"/></clipPath><clipPath id="eb8d18581d"><path d="M 219.351562 99.675781 L 342.289062 103.558594 L 337.574219 252.734375 L 214.636719 248.851562 Z M 219.351562 99.675781 " clip-rule="nonzero"/></clipPath><clipPath id="6c6bac55b1"><path d="M 219.351562 99.675781 L 342.289062 103.558594 L 337.574219 252.734375 L 214.636719 248.851562 Z M 219.351562 99.675781 " clip-rule="nonzero"/></clipPath><clipPath id="ac4bc4fda3"><path d="M 219.351562 99.675781 L 342.289062 103.558594 L 337.574219 252.734375 L 214.636719 248.851562 Z M 219.351562 99.675781 " clip-rule="nonzero"/></clipPath><clipPath id="996a6c656f"><path d="M 246 217 L 280 217 L 280 256 L 246 256 Z M 246 217 " clip-rule="nonzero"/></clipPath><clipPath id="9b6ad4b607"><path d="M 225.007812 148.246094 L 335.203125 125.59375 L 357.859375 235.789062 L 247.664062 258.441406 Z M 225.007812 148.246094 " clip-rule="nonzero"/></clipPath><clipPath id="f12ac09db6"><path d="M 225.007812 148.246094 L 335.203125 125.59375 L 357.859375 235.789062 L 247.664062 258.441406 Z M 225.007812 148.246094 " clip-rule="nonzero"/></clipPath><clipPath id="9ae878f279"><path d="M 225.007812 148.246094 L 335.203125 125.59375 L 357.859375 235.789062 L 247.664062 258.441406 Z M 225.007812 148.246094 " clip-rule="nonzero"/></clipPath><clipPath id="681abf4031"><path d="M 250 223 L 280 223 L 280 256 L 250 256 Z M 250 223 " clip-rule="nonzero"/></clipPath><clipPath id="fa6caff84a"><path d="M 225.007812 148.246094 L 335.203125 125.59375 L 357.859375 235.789062 L 247.664062 258.441406 Z M 225.007812 148.246094 " clip-rule="nonzero"/></clipPath><clipPath id="9b416b6433"><path d="M 225.007812 148.246094 L 335.203125 125.59375 L 357.859375 235.789062 L 247.664062 258.441406 Z M 225.007812 148.246094 " clip-rule="nonzero"/></clipPath><clipPath id="58707a714c"><path d="M 225.007812 148.246094 L 335.203125 125.59375 L 357.859375 235.789062 L 247.664062 258.441406 Z M 225.007812 148.246094 " clip-rule="nonzero"/></clipPath><clipPath id="00f510d10d"><path d="M 252 138 L 342 138 L 342 228 L 252 228 Z M 252 138 " clip-rule="nonzero"/></clipPath><clipPath id="b7b21acda4"><path d="M 225.007812 148.246094 L 335.203125 125.59375 L 357.859375 235.789062 L 247.664062 258.441406 Z M 225.007812 148.246094 " clip-rule="nonzero"/></clipPath><clipPath id="d8c378ee94"><path d="M 225.007812 148.246094 L 335.203125 125.59375 L 357.859375 235.789062 L 247.664062 258.441406 Z M 225.007812 148.246094 " clip-rule="nonzero"/></clipPath><clipPath id="73c8aef7cd"><path d="M 225.007812 148.246094 L 335.203125 125.59375 L 357.859375 235.789062 L 247.664062 258.441406 Z M 225.007812 148.246094 " clip-rule="nonzero"/></clipPath><clipPath id="8417e87ff5"><path d="M 272 146 L 342 146 L 342 228 L 272 228 Z M 272 146 " clip-rule="nonzero"/></clipPath><clipPath id="e9ad5934c4"><path d="M 225.007812 148.246094 L 335.203125 125.59375 L 357.859375 235.789062 L 247.664062 258.441406 Z M 225.007812 148.246094 " clip-rule="nonzero"/></clipPath><clipPath id="63ebd6b255"><path d="M 225.007812 148.246094 L 335.203125 125.59375 L 357.859375 235.789062 L 247.664062 258.441406 Z M 225.007812 148.246094 " clip-rule="nonzero"/></clipPath><clipPath id="cf173d127c"><path d="M 225.007812 148.246094 L 335.203125 125.59375 L 357.859375 235.789062 L 247.664062 258.441406 Z M 225.007812 148.246094 " clip-rule="nonzero"/></clipPath><clipPath id="6f9e9c7c9f"><path d="M 271 156 L 298 156 L 298 190 L 271 190 Z M 271 156 " clip-rule="nonzero"/></clipPath><clipPath id="1a77f3586c"><path d="M 225.007812 148.246094 L 335.203125 125.59375 L 357.859375 235.789062 L 247.664062 258.441406 Z M 225.007812 148.246094 " clip-rule="nonzero"/></clipPath><clipPath id="0696cd255c"><path d="M 225.007812 148.246094 L 335.203125 125.59375 L 357.859375 235.789062 L 247.664062 258.441406 Z M 225.007812 148.246094 " clip-rule="nonzero"/></clipPath><clipPath id="5a0f1a5662"><path d="M 225.007812 148.246094 L 335.203125 125.59375 L 357.859375 235.789062 L 247.664062 258.441406 Z M 225.007812 148.246094 " clip-rule="nonzero"/></clipPath><clipPath id="b0d5095492"><path d="M 28.949219 190.882812 L 342.605469 190.882812 L 342.605469 214.246094 L 28.949219 214.246094 Z M 28.949219 190.882812 " clip-rule="nonzero"/></clipPath></defs><g clip-path="url(#eea29faba4)"><g clip-path="url(#cadf708859)"><g clip-path="url(#b74a06b095)"><g clip-path="url(#61e35b0505)"><path fill="#ffcc4d" d="M 303.929688 102.433594 C 295.910156 102.179688 285.339844 109.875 276.335938 122.511719 C 265.804688 137.296875 270.886719 148.335938 274.972656 157.203125 C 275.601562 158.570312 276.886719 159.507812 278.382812 159.695312 C 278.507812 159.703125 278.636719 159.714844 278.765625 159.71875 C 280.121094 159.761719 281.429688 159.164062 282.285156 158.09375 C 293.089844 144.574219 310.300781 123.402344 313.410156 120.476562 C 314.25 119.691406 314.738281 118.597656 314.777344 117.449219 C 315.117188 106.644531 309.394531 102.605469 303.929688 102.433594 Z M 312.992188 141.765625 C 307.753906 141.601562 301.6875 146.324219 292.707031 157.554688 C 283.125 169.542969 281.324219 180.257812 286.863281 192.300781 C 287.476562 193.632812 288.71875 194.5625 290.164062 194.777344 C 290.328125 194.804688 290.496094 194.816406 290.660156 194.824219 C 291.9375 194.863281 293.175781 194.332031 294.039062 193.371094 C 301.765625 184.660156 317.28125 167.332031 320.699219 164.113281 C 321.539062 163.324219 322.027344 162.238281 322.066406 161.089844 C 322.214844 156.382812 322.664062 142.074219 312.992188 141.765625 Z M 312.992188 141.765625 " fill-opacity="1" fill-rule="nonzero"/></g></g></g></g><g clip-path="url(#975b991e17)"><g clip-path="url(#eb8d18581d)"><g clip-path="url(#6c6bac55b1)"><g clip-path="url(#ac4bc4fda3)"><path fill="#77b255" d="M 339.179688 150.851562 C 338.085938 148.722656 335.46875 147.894531 333.347656 148.996094 C 301.753906 165.285156 271.730469 208.472656 259.792969 231.789062 C 264.820312 187.695312 286.652344 145.632812 322.34375 112.074219 C 324.089844 110.433594 324.175781 107.691406 322.539062 105.945312 C 320.898438 104.195312 318.160156 104.109375 316.414062 105.75 C 280.84375 139.191406 258.449219 180.824219 251.953125 224.742188 C 249.816406 199.941406 249.625 164.285156 261.699219 139.238281 C 262.742188 137.078125 261.835938 134.484375 259.683594 133.445312 C 257.53125 132.394531 254.941406 133.308594 253.902344 135.464844 C 247.75 148.21875 244.589844 163.390625 243.167969 178.570312 C 239.597656 170.28125 235.335938 162.6875 228.714844 162.480469 L 228.515625 162.472656 C 224.574219 162.347656 221.128906 164.261719 218.230469 169.640625 C 217.09375 171.75 217.898438 173.632812 220.003906 174.769531 C 222.113281 175.914062 224.738281 175.121094 225.875 173.015625 C 227.308594 170.359375 228.253906 169.75 228.242188 169.652344 C 230.96875 170.589844 235.421875 181.582031 237.101562 185.742188 C 237.890625 187.691406 238.605469 189.445312 239.226562 190.800781 C 239.828125 192.105469 241.003906 192.933594 242.308594 193.195312 C 241.742188 214.695312 244.023438 234.617188 245.6875 245.785156 L 245.757812 246.265625 C 246.074219 248.371094 247.847656 249.898438 249.90625 249.964844 C 250.160156 249.972656 250.421875 249.960938 250.683594 249.921875 C 251.214844 249.835938 251.691406 249.644531 252.132812 249.394531 C 252.757812 249.785156 253.445312 250.078125 254.238281 250.101562 C 255.03125 250.128906 255.738281 249.878906 256.390625 249.53125 C 257 249.921875 257.675781 250.210938 258.457031 250.234375 L 258.570312 250.238281 C 260.863281 250.3125 262.835938 248.429688 263.035156 246.125 C 263.421875 241.636719 274.65625 220.386719 291.144531 199.078125 C 291.597656 199.027344 292.046875 198.964844 292.476562 198.765625 C 293.550781 198.269531 294.753906 197.65625 296.035156 196.996094 C 300.148438 194.882812 307.023438 191.355469 309.625 193 C 310.257812 193.402344 312.3125 195.40625 312.035156 204.179688 C 311.960938 206.578125 313.832031 208.578125 316.226562 208.652344 C 318.621094 208.726562 320.617188 206.851562 320.695312 204.453125 C 321 194.757812 318.898438 188.613281 314.257812 185.671875 C 310.929688 183.566406 307.09375 183.605469 303.285156 184.570312 C 313.703125 173.117188 325.371094 162.847656 337.308594 156.691406 C 339.441406 155.589844 340.277344 152.980469 339.179688 150.851562 Z M 339.179688 150.851562 " fill-opacity="1" fill-rule="nonzero"/></g></g></g></g><g clip-path="url(#996a6c656f)"><g clip-path="url(#9b6ad4b607)"><g clip-path="url(#f12ac09db6)"><g clip-path="url(#9ae878f279)"><path fill="#34495e" d="M 247.835938 240.574219 L 262.734375 218.019531 C 262.8125 217.90625 262.90625 217.816406 262.992188 217.726562 C 265.210938 219.96875 267.730469 222.015625 270.46875 223.824219 C 273.207031 225.628906 276.085938 227.136719 279.050781 228.285156 C 278.976562 228.402344 278.929688 228.53125 278.855469 228.640625 L 264.003906 251.230469 C 261.058594 255.6875 255.046875 256.917969 250.597656 253.984375 C 246.144531 251.050781 244.902344 245.035156 247.835938 240.574219 Z M 247.835938 240.574219 " fill-opacity="1" fill-rule="nonzero"/></g></g></g></g><g clip-path="url(#681abf4031)"><g clip-path="url(#fa6caff84a)"><g clip-path="url(#9b416b6433)"><g clip-path="url(#58707a714c)"><path fill="#2c3e50" d="M 270.46875 223.820312 L 270.46875 223.824219 C 273.207031 225.628906 276.085938 227.136719 279.050781 228.285156 C 278.976562 228.402344 278.929688 228.53125 278.855469 228.640625 L 264.003906 251.230469 C 261.058594 255.6875 255.046875 256.917969 250.597656 253.984375 Z M 270.46875 223.820312 " fill-opacity="1" fill-rule="nonzero"/></g></g></g></g><g clip-path="url(#00f510d10d)"><g clip-path="url(#b7b21acda4)"><g clip-path="url(#d8c378ee94)"><g clip-path="url(#73c8aef7cd)"><path fill="#1abc9c" d="M 259.890625 158.820312 C 273.417969 138.296875 301.121094 132.601562 321.652344 146.128906 C 342.199219 159.648438 347.902344 187.371094 334.363281 207.902344 C 320.828125 228.425781 293.121094 234.125 272.589844 220.601562 C 252.0625 207.074219 246.363281 179.347656 259.890625 158.820312 Z M 324.691406 201.535156 C 334.703125 186.335938 330.480469 165.8125 315.285156 155.808594 C 300.085938 145.792969 279.570312 150.011719 269.558594 165.199219 C 259.550781 180.390625 263.769531 200.894531 278.960938 210.929688 C 294.148438 220.90625 314.667969 216.738281 324.691406 201.535156 Z M 324.691406 201.535156 " fill-opacity="1" fill-rule="nonzero"/></g></g></g></g><g clip-path="url(#8417e87ff5)"><g clip-path="url(#e9ad5934c4)"><g clip-path="url(#63ebd6b255)"><g clip-path="url(#cf173d127c)"><path fill="#16a085" d="M 321.652344 146.128906 C 342.199219 159.648438 347.902344 187.371094 334.363281 207.902344 C 320.828125 228.425781 293.121094 234.125 272.589844 220.601562 L 278.960938 210.929688 C 294.148438 220.90625 314.667969 216.738281 324.691406 201.535156 C 334.703125 186.335938 330.480469 165.8125 315.285156 155.808594 L 315.277344 155.804688 Z M 321.652344 146.128906 " fill-opacity="1" fill-rule="nonzero"/></g></g></g></g><g clip-path="url(#6f9e9c7c9f)"><g clip-path="url(#1a77f3586c)"><g clip-path="url(#0696cd255c)"><g clip-path="url(#5a0f1a5662)"><path fill="#95a5a6" d="M 281.339844 180.476562 C 280.949219 184.453125 277.851562 190.339844 274.371094 189.101562 C 271.613281 188.152344 271.480469 182.035156 272.1875 178.304688 C 275.304688 161.355469 294.519531 155.136719 296.859375 156.890625 C 299.160156 158.617188 282.886719 164.726562 281.339844 180.476562 Z M 281.339844 180.476562 " fill-opacity="1" fill-rule="nonzero"/></g></g></g></g><g fill="#9ae19d" fill-opacity="1"><g transform="translate(26.651787, 252.999043)"><g><path d="M 43.765625 -41.4375 L 43.765625 -16.8125 C 43.765625 -12.75 44.171875 -9.800781 44.984375 -7.96875 C 45.804688 -6.132812 47.304688 -4.898438 49.484375 -4.265625 C 51.660156 -3.640625 55.113281 -3.328125 59.84375 -3.328125 L 59.84375 0 C 46.800781 -0.289062 36.851562 -0.4375 30 -0.4375 C 25.457031 -0.4375 19.128906 -0.335938 11.015625 -0.140625 L 4.0625 0 L 4.0625 -2.890625 C 7.144531 -3.085938 9.382812 -3.472656 10.78125 -4.046875 C 12.1875 -4.628906 13.128906 -5.742188 13.609375 -7.390625 C 14.097656 -9.035156 14.34375 -11.691406 14.34375 -15.359375 L 14.34375 -87.234375 C 14.34375 -90.898438 14.078125 -93.554688 13.546875 -95.203125 C 13.015625 -96.847656 12.070312 -97.957031 10.71875 -98.53125 C 9.363281 -99.113281 7.144531 -99.503906 4.0625 -99.703125 L 4.0625 -102.59375 C 9.5625 -102.300781 17.867188 -102.15625 28.984375 -102.15625 L 45.640625 -102.296875 C 47.578125 -102.398438 49.800781 -102.453125 52.3125 -102.453125 C 66.601562 -102.453125 77.441406 -99.863281 84.828125 -94.6875 C 92.222656 -89.519531 95.921875 -82.59375 95.921875 -73.90625 C 95.921875 -68.59375 94.472656 -63.492188 91.578125 -58.609375 C 88.679688 -53.734375 83.753906 -49.648438 76.796875 -46.359375 C 69.835938 -43.078125 60.613281 -41.4375 49.125 -41.4375 Z M 51.59375 -99.703125 C 49.363281 -99.703125 47.691406 -99.363281 46.578125 -98.6875 C 45.472656 -98.007812 44.726562 -96.800781 44.34375 -95.0625 C 43.957031 -93.320312 43.765625 -90.710938 43.765625 -87.234375 L 43.765625 -44.34375 L 47.671875 -44.34375 C 54.429688 -44.34375 59.09375 -46.851562 61.65625 -51.875 C 64.21875 -56.894531 65.5 -63.707031 65.5 -72.3125 C 65.5 -81.675781 64.4375 -88.582031 62.3125 -93.03125 C 60.1875 -97.476562 56.613281 -99.703125 51.59375 -99.703125 Z M 51.59375 -99.703125 "/></g></g></g><g fill="#9ae19d" fill-opacity="1"><g transform="translate(138.661892, 252.999043)"><g><path d="M 43.765625 -41.4375 L 43.765625 -16.8125 C 43.765625 -12.75 44.171875 -9.800781 44.984375 -7.96875 C 45.804688 -6.132812 47.304688 -4.898438 49.484375 -4.265625 C 51.660156 -3.640625 55.113281 -3.328125 59.84375 -3.328125 L 59.84375 0 C 46.800781 -0.289062 36.851562 -0.4375 30 -0.4375 C 25.457031 -0.4375 19.128906 -0.335938 11.015625 -0.140625 L 4.0625 0 L 4.0625 -2.890625 C 7.144531 -3.085938 9.382812 -3.472656 10.78125 -4.046875 C 12.1875 -4.628906 13.128906 -5.742188 13.609375 -7.390625 C 14.097656 -9.035156 14.34375 -11.691406 14.34375 -15.359375 L 14.34375 -87.234375 C 14.34375 -90.898438 14.078125 -93.554688 13.546875 -95.203125 C 13.015625 -96.847656 12.070312 -97.957031 10.71875 -98.53125 C 9.363281 -99.113281 7.144531 -99.503906 4.0625 -99.703125 L 4.0625 -102.59375 C 9.5625 -102.300781 17.867188 -102.15625 28.984375 -102.15625 L 45.640625 -102.296875 C 47.578125 -102.398438 49.800781 -102.453125 52.3125 -102.453125 C 66.601562 -102.453125 77.441406 -99.863281 84.828125 -94.6875 C 92.222656 -89.519531 95.921875 -82.59375 95.921875 -73.90625 C 95.921875 -68.59375 94.472656 -63.492188 91.578125 -58.609375 C 88.679688 -53.734375 83.753906 -49.648438 76.796875 -46.359375 C 69.835938 -43.078125 60.613281 -41.4375 49.125 -41.4375 Z M 51.59375 -99.703125 C 49.363281 -99.703125 47.691406 -99.363281 46.578125 -98.6875 C 45.472656 -98.007812 44.726562 -96.800781 44.34375 -95.0625 C 43.957031 -93.320312 43.765625 -90.710938 43.765625 -87.234375 L 43.765625 -44.34375 L 47.671875 -44.34375 C 54.429688 -44.34375 59.09375 -46.851562 61.65625 -51.875 C 64.21875 -56.894531 65.5 -63.707031 65.5 -72.3125 C 65.5 -81.675781 64.4375 -88.582031 62.3125 -93.03125 C 60.1875 -97.476562 56.613281 -99.703125 51.59375 -99.703125 Z M 51.59375 -99.703125 "/></g></g></g><g clip-path="url(#b0d5095492)"><path fill="#fbfaf9" d="M 28.949219 190.882812 L 342.820312 190.882812 L 342.820312 214.226562 L 28.949219 214.226562 Z M 28.949219 190.882812 " fill-opacity="1" fill-rule="nonzero"/></g><g fill="#9ae19d" fill-opacity="1"><g transform="translate(34.7992, 207.069243)"><g><path d="M 6.609375 -6.078125 C 6.609375 -5.203125 6.3125 -4.53125 5.71875 -4.0625 C 5.125 -3.601562 4.28125 -3.375 3.1875 -3.375 L 2.171875 -3.375 L 2.171875 0 L 1.171875 0 L 1.171875 -8.5625 L 3.40625 -8.5625 C 5.539062 -8.5625 6.609375 -7.734375 6.609375 -6.078125 Z M 2.171875 -4.21875 L 3.078125 -4.21875 C 3.953125 -4.21875 4.585938 -4.359375 4.984375 -4.640625 C 5.378906 -4.929688 5.578125 -5.394531 5.578125 -6.03125 C 5.578125 -6.59375 5.390625 -7.007812 5.015625 -7.28125 C 4.648438 -7.5625 4.070312 -7.703125 3.28125 -7.703125 L 2.171875 -7.703125 Z M 2.171875 -4.21875 "/></g></g></g><g fill="#9ae19d" fill-opacity="1"><g transform="translate(50.543809, 207.069243)"><g><path d="M 6.5625 0 L 5.5 -2.71875 L 2.0625 -2.71875 L 1.015625 0 L 0 0 L 3.390625 -8.609375 L 4.21875 -8.609375 L 7.59375 0 Z M 5.1875 -3.625 L 4.1875 -6.28125 C 4.0625 -6.613281 3.929688 -7.023438 3.796875 -7.515625 C 3.703125 -7.140625 3.578125 -6.726562 3.421875 -6.28125 L 2.421875 -3.625 Z M 5.1875 -3.625 "/></g></g></g><g fill="#9ae19d" fill-opacity="1"><g transform="translate(66.657559, 207.069243)"><g><path d="M 8.015625 -4.359375 C 8.015625 -2.953125 7.628906 -1.875 6.859375 -1.125 C 6.097656 -0.375 4.992188 0 3.546875 0 L 1.171875 0 L 1.171875 -8.5625 L 3.796875 -8.5625 C 5.128906 -8.5625 6.164062 -8.191406 6.90625 -7.453125 C 7.644531 -6.722656 8.015625 -5.691406 8.015625 -4.359375 Z M 6.96875 -4.328125 C 6.96875 -5.441406 6.6875 -6.28125 6.125 -6.84375 C 5.5625 -7.414062 4.726562 -7.703125 3.625 -7.703125 L 2.171875 -7.703125 L 2.171875 -0.859375 L 3.390625 -0.859375 C 4.578125 -0.859375 5.46875 -1.148438 6.0625 -1.734375 C 6.664062 -2.316406 6.96875 -3.179688 6.96875 -4.328125 Z M 6.96875 -4.328125 "/></g></g></g><g fill="#9ae19d" fill-opacity="1"><g transform="translate(83.925605, 207.069243)"><g><path d="M 8.015625 -4.359375 C 8.015625 -2.953125 7.628906 -1.875 6.859375 -1.125 C 6.097656 -0.375 4.992188 0 3.546875 0 L 1.171875 0 L 1.171875 -8.5625 L 3.796875 -8.5625 C 5.128906 -8.5625 6.164062 -8.191406 6.90625 -7.453125 C 7.644531 -6.722656 8.015625 -5.691406 8.015625 -4.359375 Z M 6.96875 -4.328125 C 6.96875 -5.441406 6.6875 -6.28125 6.125 -6.84375 C 5.5625 -7.414062 4.726562 -7.703125 3.625 -7.703125 L 2.171875 -7.703125 L 2.171875 -0.859375 L 3.390625 -0.859375 C 4.578125 -0.859375 5.46875 -1.148438 6.0625 -1.734375 C 6.664062 -2.316406 6.96875 -3.179688 6.96875 -4.328125 Z M 6.96875 -4.328125 "/></g></g></g><g fill="#9ae19d" fill-opacity="1"><g transform="translate(101.193651, 207.069243)"><g><path d="M 3.359375 -4.28125 L 5.640625 -8.5625 L 6.71875 -8.5625 L 3.859375 -3.328125 L 3.859375 0 L 2.859375 0 L 2.859375 -3.28125 L 0 -8.5625 L 1.09375 -8.5625 Z M 3.359375 -4.28125 "/></g></g></g><g fill="#9ae19d" fill-opacity="1"><g transform="translate(116.434353, 207.069243)"><g><path d="M 6.609375 -6.078125 C 6.609375 -5.203125 6.3125 -4.53125 5.71875 -4.0625 C 5.125 -3.601562 4.28125 -3.375 3.1875 -3.375 L 2.171875 -3.375 L 2.171875 0 L 1.171875 0 L 1.171875 -8.5625 L 3.40625 -8.5625 C 5.539062 -8.5625 6.609375 -7.734375 6.609375 -6.078125 Z M 2.171875 -4.21875 L 3.078125 -4.21875 C 3.953125 -4.21875 4.585938 -4.359375 4.984375 -4.640625 C 5.378906 -4.929688 5.578125 -5.394531 5.578125 -6.03125 C 5.578125 -6.59375 5.390625 -7.007812 5.015625 -7.28125 C 4.648438 -7.5625 4.070312 -7.703125 3.28125 -7.703125 L 2.171875 -7.703125 Z M 2.171875 -4.21875 "/></g></g></g><g fill="#9ae19d" fill-opacity="1"><g transform="translate(132.178962, 207.069243)"><g><path d="M 1.171875 0 L 1.171875 -8.5625 L 2.171875 -8.5625 L 2.171875 -0.90625 L 5.953125 -0.90625 L 5.953125 0 Z M 1.171875 0 "/></g></g></g><g fill="#9ae19d" fill-opacity="1"><g transform="translate(146.927477, 207.069243)"><g><path d="M 6.5625 0 L 5.5 -2.71875 L 2.0625 -2.71875 L 1.015625 0 L 0 0 L 3.390625 -8.609375 L 4.21875 -8.609375 L 7.59375 0 Z M 5.1875 -3.625 L 4.1875 -6.28125 C 4.0625 -6.613281 3.929688 -7.023438 3.796875 -7.515625 C 3.703125 -7.140625 3.578125 -6.726562 3.421875 -6.28125 L 2.421875 -3.625 Z M 5.1875 -3.625 "/></g></g></g><g fill="#9ae19d" fill-opacity="1"><g transform="translate(163.041227, 207.069243)"><g><path d="M 7.875 0 L 6.734375 0 L 2.046875 -7.1875 L 2 -7.1875 C 2.0625 -6.34375 2.09375 -5.570312 2.09375 -4.875 L 2.09375 0 L 1.171875 0 L 1.171875 -8.5625 L 2.296875 -8.5625 L 6.96875 -1.40625 L 7.015625 -1.40625 C 7.015625 -1.507812 7 -1.847656 6.96875 -2.421875 C 6.9375 -2.992188 6.925781 -3.40625 6.9375 -3.65625 L 6.9375 -8.5625 L 7.875 -8.5625 Z M 7.875 0 "/></g></g></g><g fill="#9ae19d" fill-opacity="1"><g transform="translate(180.608101, 207.069243)"><g><path d="M 3.8125 0 L 2.8125 0 L 2.8125 -7.6875 L 0.109375 -7.6875 L 0.109375 -8.5625 L 6.53125 -8.5625 L 6.53125 -7.6875 L 3.8125 -7.6875 Z M 3.8125 0 "/></g></g></g><g fill="#9ae19d" fill-opacity="1"><g transform="translate(195.766773, 207.069243)"><g><path d="M 6.609375 -6.078125 C 6.609375 -5.203125 6.3125 -4.53125 5.71875 -4.0625 C 5.125 -3.601562 4.28125 -3.375 3.1875 -3.375 L 2.171875 -3.375 L 2.171875 0 L 1.171875 0 L 1.171875 -8.5625 L 3.40625 -8.5625 C 5.539062 -8.5625 6.609375 -7.734375 6.609375 -6.078125 Z M 2.171875 -4.21875 L 3.078125 -4.21875 C 3.953125 -4.21875 4.585938 -4.359375 4.984375 -4.640625 C 5.378906 -4.929688 5.578125 -5.394531 5.578125 -6.03125 C 5.578125 -6.59375 5.390625 -7.007812 5.015625 -7.28125 C 4.648438 -7.5625 4.070312 -7.703125 3.28125 -7.703125 L 2.171875 -7.703125 Z M 2.171875 -4.21875 "/></g></g></g><g fill="#9ae19d" fill-opacity="1"><g transform="translate(211.511381, 207.069243)"><g><path d="M 2.171875 -3.5625 L 2.171875 0 L 1.171875 0 L 1.171875 -8.5625 L 3.53125 -8.5625 C 4.582031 -8.5625 5.359375 -8.359375 5.859375 -7.953125 C 6.359375 -7.554688 6.609375 -6.953125 6.609375 -6.140625 C 6.609375 -5.015625 6.035156 -4.25 4.890625 -3.84375 L 7.21875 0 L 6.03125 0 L 3.96875 -3.5625 Z M 2.171875 -4.421875 L 3.546875 -4.421875 C 4.242188 -4.421875 4.753906 -4.554688 5.078125 -4.828125 C 5.410156 -5.109375 5.578125 -5.53125 5.578125 -6.09375 C 5.578125 -6.65625 5.410156 -7.0625 5.078125 -7.3125 C 4.742188 -7.5625 4.207031 -7.6875 3.46875 -7.6875 L 2.171875 -7.6875 Z M 2.171875 -4.421875 "/></g></g></g><g fill="#9ae19d" fill-opacity="1"><g transform="translate(227.44935, 207.069243)"><g><path d="M 8.609375 -4.296875 C 8.609375 -2.921875 8.257812 -1.835938 7.5625 -1.046875 C 6.875 -0.265625 5.914062 0.125 4.6875 0.125 C 3.425781 0.125 2.453125 -0.257812 1.765625 -1.03125 C 1.078125 -1.8125 0.734375 -2.90625 0.734375 -4.3125 C 0.734375 -5.707031 1.078125 -6.785156 1.765625 -7.546875 C 2.453125 -8.316406 3.425781 -8.703125 4.6875 -8.703125 C 5.925781 -8.703125 6.890625 -8.3125 7.578125 -7.53125 C 8.265625 -6.75 8.609375 -5.671875 8.609375 -4.296875 Z M 1.78125 -4.296875 C 1.78125 -3.140625 2.023438 -2.257812 2.515625 -1.65625 C 3.015625 -1.050781 3.738281 -0.75 4.6875 -0.75 C 5.632812 -0.75 6.347656 -1.046875 6.828125 -1.640625 C 7.316406 -2.242188 7.5625 -3.128906 7.5625 -4.296875 C 7.5625 -5.453125 7.316406 -6.328125 6.828125 -6.921875 C 6.347656 -7.515625 5.632812 -7.8125 4.6875 -7.8125 C 3.738281 -7.8125 3.015625 -7.507812 2.515625 -6.90625 C 2.023438 -6.3125 1.78125 -5.441406 1.78125 -4.296875 Z M 1.78125 -4.296875 "/></g></g></g><g fill="#9ae19d" fill-opacity="1"><g transform="translate(245.315041, 207.069243)"><g><path d="M 4.953125 -4.484375 L 7.859375 -4.484375 L 7.859375 -0.328125 C 7.398438 -0.179688 6.9375 -0.0703125 6.46875 0 C 6 0.0820312 5.457031 0.125 4.84375 0.125 C 3.550781 0.125 2.539062 -0.257812 1.8125 -1.03125 C 1.09375 -1.8125 0.734375 -2.894531 0.734375 -4.28125 C 0.734375 -5.175781 0.910156 -5.957031 1.265625 -6.625 C 1.628906 -7.289062 2.144531 -7.800781 2.8125 -8.15625 C 3.488281 -8.507812 4.273438 -8.6875 5.171875 -8.6875 C 6.085938 -8.6875 6.941406 -8.519531 7.734375 -8.1875 L 7.34375 -7.3125 C 6.570312 -7.632812 5.828125 -7.796875 5.109375 -7.796875 C 4.066406 -7.796875 3.25 -7.484375 2.65625 -6.859375 C 2.070312 -6.242188 1.78125 -5.382812 1.78125 -4.28125 C 1.78125 -3.125 2.0625 -2.242188 2.625 -1.640625 C 3.195312 -1.046875 4.03125 -0.75 5.125 -0.75 C 5.71875 -0.75 6.296875 -0.820312 6.859375 -0.96875 L 6.859375 -3.59375 L 4.953125 -3.59375 Z M 4.953125 -4.484375 "/></g></g></g><g fill="#9ae19d" fill-opacity="1"><g transform="translate(262.571357, 207.069243)"><g><path d="M 7.875 0 L 6.734375 0 L 2.046875 -7.1875 L 2 -7.1875 C 2.0625 -6.34375 2.09375 -5.570312 2.09375 -4.875 L 2.09375 0 L 1.171875 0 L 1.171875 -8.5625 L 2.296875 -8.5625 L 6.96875 -1.40625 L 7.015625 -1.40625 C 7.015625 -1.507812 7 -1.847656 6.96875 -2.421875 C 6.9375 -2.992188 6.925781 -3.40625 6.9375 -3.65625 L 6.9375 -8.5625 L 7.875 -8.5625 Z M 7.875 0 "/></g></g></g><g fill="#9ae19d" fill-opacity="1"><g transform="translate(280.13822, 207.069243)"><g><path d="M 8.609375 -4.296875 C 8.609375 -2.921875 8.257812 -1.835938 7.5625 -1.046875 C 6.875 -0.265625 5.914062 0.125 4.6875 0.125 C 3.425781 0.125 2.453125 -0.257812 1.765625 -1.03125 C 1.078125 -1.8125 0.734375 -2.90625 0.734375 -4.3125 C 0.734375 -5.707031 1.078125 -6.785156 1.765625 -7.546875 C 2.453125 -8.316406 3.425781 -8.703125 4.6875 -8.703125 C 5.925781 -8.703125 6.890625 -8.3125 7.578125 -7.53125 C 8.265625 -6.75 8.609375 -5.671875 8.609375 -4.296875 Z M 1.78125 -4.296875 C 1.78125 -3.140625 2.023438 -2.257812 2.515625 -1.65625 C 3.015625 -1.050781 3.738281 -0.75 4.6875 -0.75 C 5.632812 -0.75 6.347656 -1.046875 6.828125 -1.640625 C 7.316406 -2.242188 7.5625 -3.128906 7.5625 -4.296875 C 7.5625 -5.453125 7.316406 -6.328125 6.828125 -6.921875 C 6.347656 -7.515625 5.632812 -7.8125 4.6875 -7.8125 C 3.738281 -7.8125 3.015625 -7.507812 2.515625 -6.90625 C 2.023438 -6.3125 1.78125 -5.441406 1.78125 -4.296875 Z M 1.78125 -4.296875 "/></g></g></g><g fill="#9ae19d" fill-opacity="1"><g transform="translate(298.003911, 207.069243)"><g><path d="M 6.015625 -2.28125 C 6.015625 -1.53125 5.738281 -0.941406 5.1875 -0.515625 C 4.644531 -0.0859375 3.90625 0.125 2.96875 0.125 C 1.945312 0.125 1.164062 -0.0078125 0.625 -0.28125 L 0.625 -1.234375 C 0.976562 -1.085938 1.359375 -0.96875 1.765625 -0.875 C 2.179688 -0.789062 2.59375 -0.75 3 -0.75 C 3.664062 -0.75 4.164062 -0.875 4.5 -1.125 C 4.832031 -1.382812 5 -1.738281 5 -2.1875 C 5 -2.476562 4.9375 -2.71875 4.8125 -2.90625 C 4.695312 -3.101562 4.5 -3.28125 4.21875 -3.4375 C 3.945312 -3.601562 3.523438 -3.785156 2.953125 -3.984375 C 2.160156 -4.265625 1.59375 -4.597656 1.25 -4.984375 C 0.90625 -5.378906 0.734375 -5.894531 0.734375 -6.53125 C 0.734375 -7.1875 0.976562 -7.707031 1.46875 -8.09375 C 1.96875 -8.488281 2.628906 -8.6875 3.453125 -8.6875 C 4.296875 -8.6875 5.078125 -8.53125 5.796875 -8.21875 L 5.484375 -7.359375 C 4.773438 -7.648438 4.085938 -7.796875 3.421875 -7.796875 C 2.890625 -7.796875 2.472656 -7.679688 2.171875 -7.453125 C 1.878906 -7.234375 1.734375 -6.921875 1.734375 -6.515625 C 1.734375 -6.222656 1.785156 -5.976562 1.890625 -5.78125 C 2.003906 -5.59375 2.191406 -5.421875 2.453125 -5.265625 C 2.710938 -5.109375 3.113281 -4.929688 3.65625 -4.734375 C 4.550781 -4.421875 5.164062 -4.078125 5.5 -3.703125 C 5.84375 -3.335938 6.015625 -2.863281 6.015625 -2.28125 Z M 6.015625 -2.28125 "/></g></g></g><g fill="#9ae19d" fill-opacity="1"><g transform="translate(313.109836, 207.069243)"><g><path d="M 1.171875 0 L 1.171875 -8.5625 L 2.171875 -8.5625 L 2.171875 0 Z M 1.171875 0 "/></g></g></g><g fill="#9ae19d" fill-opacity="1"><g transform="translate(324.975527, 207.069243)"><g><path d="M 6.015625 -2.28125 C 6.015625 -1.53125 5.738281 -0.941406 5.1875 -0.515625 C 4.644531 -0.0859375 3.90625 0.125 2.96875 0.125 C 1.945312 0.125 1.164062 -0.0078125 0.625 -0.28125 L 0.625 -1.234375 C 0.976562 -1.085938 1.359375 -0.96875 1.765625 -0.875 C 2.179688 -0.789062 2.59375 -0.75 3 -0.75 C 3.664062 -0.75 4.164062 -0.875 4.5 -1.125 C 4.832031 -1.382812 5 -1.738281 5 -2.1875 C 5 -2.476562 4.9375 -2.71875 4.8125 -2.90625 C 4.695312 -3.101562 4.5 -3.28125 4.21875 -3.4375 C 3.945312 -3.601562 3.523438 -3.785156 2.953125 -3.984375 C 2.160156 -4.265625 1.59375 -4.597656 1.25 -4.984375 C 0.90625 -5.378906 0.734375 -5.894531 0.734375 -6.53125 C 0.734375 -7.1875 0.976562 -7.707031 1.46875 -8.09375 C 1.96875 -8.488281 2.628906 -8.6875 3.453125 -8.6875 C 4.296875 -8.6875 5.078125 -8.53125 5.796875 -8.21875 L 5.484375 -7.359375 C 4.773438 -7.648438 4.085938 -7.796875 3.421875 -7.796875 C 2.890625 -7.796875 2.472656 -7.679688 2.171875 -7.453125 C 1.878906 -7.234375 1.734375 -6.921875 1.734375 -6.515625 C 1.734375 -6.222656 1.785156 -5.976562 1.890625 -5.78125 C 2.003906 -5.59375 2.191406 -5.421875 2.453125 -5.265625 C 2.710938 -5.109375 3.113281 -4.929688 3.65625 -4.734375 C 4.550781 -4.421875 5.164062 -4.078125 5.5 -3.703125 C 5.84375 -3.335938 6.015625 -2.863281 6.015625 -2.28125 Z M 6.015625 -2.28125 "/></g></g></g></svg>