<svg xmlns="http://www.w3.org/2000/svg" xmlns:xlink="http://www.w3.org/1999/xlink" width="500" zoomAndPan="magnify" viewBox="0 0 375 374.999991" height="500" preserveAspectRatio="xMidYMid meet" version="1.0"><defs><g/><clipPath id="d55da30c55"><path d="M 285 97 L 339 97 L 339 194 L 285 194 Z M 285 97 " clip-rule="nonzero"/></clipPath><clipPath id="e3593d7f8e"><path d="M 233.09375 95.03125 L 359.78125 99.035156 L 354.925781 252.707031 L 228.238281 248.707031 Z M 233.09375 95.03125 " clip-rule="nonzero"/></clipPath><clipPath id="6077c4ec34"><path d="M 233.09375 95.03125 L 359.78125 99.035156 L 354.925781 252.707031 L 228.238281 248.707031 Z M 233.09375 95.03125 " clip-rule="nonzero"/></clipPath><clipPath id="01e129fc2e"><path d="M 233.09375 95.03125 L 359.78125 99.035156 L 354.925781 252.707031 L 228.238281 248.707031 Z M 233.09375 95.03125 " clip-rule="nonzero"/></clipPath><clipPath id="fecdf6d737"><path d="M 231 100 L 358 100 L 358 251 L 231 251 Z M 231 100 " clip-rule="nonzero"/></clipPath><clipPath id="aef8ad72b8"><path d="M 233.09375 95.03125 L 359.78125 99.035156 L 354.925781 252.707031 L 228.238281 248.707031 Z M 233.09375 95.03125 " clip-rule="nonzero"/></clipPath><clipPath id="dce1f844fa"><path d="M 233.09375 95.03125 L 359.78125 99.035156 L 354.925781 252.707031 L 228.238281 248.707031 Z M 233.09375 95.03125 " clip-rule="nonzero"/></clipPath><clipPath id="bb8c82dd09"><path d="M 233.09375 95.03125 L 359.78125 99.035156 L 354.925781 252.707031 L 228.238281 248.707031 Z M 233.09375 95.03125 " clip-rule="nonzero"/></clipPath><clipPath id="dbc4a44e00"><path d="M 259 217 L 293 217 L 293 255 L 259 255 Z M 259 217 " clip-rule="nonzero"/></clipPath><clipPath id="5ae96acdf6"><path d="M 238.628906 147.617188 L 348.824219 124.964844 L 371.476562 235.160156 L 261.28125 257.8125 Z M 238.628906 147.617188 " clip-rule="nonzero"/></clipPath><clipPath id="d49fd4e859"><path d="M 238.628906 147.617188 L 348.824219 124.964844 L 371.476562 235.160156 L 261.28125 257.8125 Z M 238.628906 147.617188 " clip-rule="nonzero"/></clipPath><clipPath id="cdb946cdc7"><path d="M 238.628906 147.617188 L 348.824219 124.964844 L 371.476562 235.160156 L 261.28125 257.8125 Z M 238.628906 147.617188 " clip-rule="nonzero"/></clipPath><clipPath id="95dd644ecc"><path d="M 264 223 L 293 223 L 293 255 L 264 255 Z M 264 223 " clip-rule="nonzero"/></clipPath><clipPath id="a2593c1b42"><path d="M 238.628906 147.617188 L 348.824219 124.964844 L 371.476562 235.160156 L 261.28125 257.8125 Z M 238.628906 147.617188 " clip-rule="nonzero"/></clipPath><clipPath id="30db50cc5e"><path d="M 238.628906 147.617188 L 348.824219 124.964844 L 371.476562 235.160156 L 261.28125 257.8125 Z M 238.628906 147.617188 " clip-rule="nonzero"/></clipPath><clipPath id="6837901bc2"><path d="M 238.628906 147.617188 L 348.824219 124.964844 L 371.476562 235.160156 L 261.28125 257.8125 Z M 238.628906 147.617188 " clip-rule="nonzero"/></clipPath><clipPath id="2daeb6b810"><path d="M 266 138 L 356 138 L 356 228 L 266 228 Z M 266 138 " clip-rule="nonzero"/></clipPath><clipPath id="2131fdb8d2"><path d="M 238.628906 147.617188 L 348.824219 124.964844 L 371.476562 235.160156 L 261.28125 257.8125 Z M 238.628906 147.617188 " clip-rule="nonzero"/></clipPath><clipPath id="dc0c216346"><path d="M 238.628906 147.617188 L 348.824219 124.964844 L 371.476562 235.160156 L 261.28125 257.8125 Z M 238.628906 147.617188 " clip-rule="nonzero"/></clipPath><clipPath id="0fcc3cbd2d"><path d="M 238.628906 147.617188 L 348.824219 124.964844 L 371.476562 235.160156 L 261.28125 257.8125 Z M 238.628906 147.617188 " clip-rule="nonzero"/></clipPath><clipPath id="fc1fc6bd56"><path d="M 286 145 L 356 145 L 356 228 L 286 228 Z M 286 145 " clip-rule="nonzero"/></clipPath><clipPath id="275d36bd42"><path d="M 238.628906 147.617188 L 348.824219 124.964844 L 371.476562 235.160156 L 261.28125 257.8125 Z M 238.628906 147.617188 " clip-rule="nonzero"/></clipPath><clipPath id="7a33abfb97"><path d="M 238.628906 147.617188 L 348.824219 124.964844 L 371.476562 235.160156 L 261.28125 257.8125 Z M 238.628906 147.617188 " clip-rule="nonzero"/></clipPath><clipPath id="eabb4bbdb8"><path d="M 238.628906 147.617188 L 348.824219 124.964844 L 371.476562 235.160156 L 261.28125 257.8125 Z M 238.628906 147.617188 " clip-rule="nonzero"/></clipPath><clipPath id="22f6848180"><path d="M 285 155 L 311 155 L 311 189 L 285 189 Z M 285 155 " clip-rule="nonzero"/></clipPath><clipPath id="1749b945a7"><path d="M 238.628906 147.617188 L 348.824219 124.964844 L 371.476562 235.160156 L 261.28125 257.8125 Z M 238.628906 147.617188 " clip-rule="nonzero"/></clipPath><clipPath id="62a6c38dae"><path d="M 238.628906 147.617188 L 348.824219 124.964844 L 371.476562 235.160156 L 261.28125 257.8125 Z M 238.628906 147.617188 " clip-rule="nonzero"/></clipPath><clipPath id="95bba62572"><path d="M 238.628906 147.617188 L 348.824219 124.964844 L 371.476562 235.160156 L 261.28125 257.8125 Z M 238.628906 147.617188 " clip-rule="nonzero"/></clipPath><clipPath id="de4383d8fa"><path d="M 42.570312 190.253906 L 356.222656 190.253906 L 356.222656 213.617188 L 42.570312 213.617188 Z M 42.570312 190.253906 " clip-rule="nonzero"/></clipPath></defs><g clip-path="url(#d55da30c55)"><g clip-path="url(#e3593d7f8e)"><g clip-path="url(#6077c4ec34)"><g clip-path="url(#01e129fc2e)"><path fill="#ffcc4d" d="M 320.25 97.875 C 311.988281 97.613281 301.09375 105.539062 291.820312 118.558594 C 280.96875 133.789062 286.203125 145.160156 290.414062 154.296875 C 291.058594 155.703125 292.386719 156.671875 293.925781 156.863281 C 294.054688 156.871094 294.191406 156.882812 294.324219 156.886719 C 295.71875 156.933594 297.066406 156.316406 297.949219 155.214844 C 309.082031 141.289062 326.816406 119.476562 330.019531 116.460938 C 330.886719 115.652344 331.390625 114.527344 331.425781 113.34375 C 331.777344 102.210938 325.882812 98.054688 320.25 97.875 Z M 329.589844 138.394531 C 324.191406 138.222656 317.941406 143.089844 308.691406 154.660156 C 298.8125 167.007812 296.960938 178.046875 302.667969 190.453125 C 303.300781 191.824219 304.578125 192.78125 306.066406 193 C 306.234375 193.027344 306.410156 193.042969 306.578125 193.050781 C 307.894531 193.089844 309.171875 192.546875 310.058594 191.554688 C 318.019531 182.582031 334.011719 164.730469 337.53125 161.414062 C 338.398438 160.601562 338.902344 159.480469 338.9375 158.296875 C 339.09375 153.449219 339.558594 138.710938 329.589844 138.394531 Z M 329.589844 138.394531 " fill-opacity="1" fill-rule="nonzero"/></g></g></g></g><g clip-path="url(#fecdf6d737)"><g clip-path="url(#aef8ad72b8)"><g clip-path="url(#dce1f844fa)"><g clip-path="url(#bb8c82dd09)"><path fill="#77b255" d="M 356.574219 147.75 C 355.445312 145.5625 352.75 144.707031 350.566406 145.839844 C 318.007812 162.621094 287.074219 207.109375 274.773438 231.132812 C 279.953125 185.707031 302.449219 142.375 339.226562 107.808594 C 341.027344 106.117188 341.113281 103.292969 339.425781 101.492188 C 337.734375 99.691406 334.917969 99.601562 333.117188 101.292969 C 296.464844 135.742188 273.386719 178.628906 266.695312 223.867188 C 264.492188 198.324219 264.296875 161.589844 276.738281 135.789062 C 277.8125 133.566406 276.878906 130.894531 274.660156 129.820312 C 272.441406 128.742188 269.769531 129.679688 268.699219 131.898438 C 262.363281 145.039062 259.105469 160.667969 257.640625 176.308594 C 253.964844 167.765625 249.570312 159.945312 242.75 159.730469 L 242.542969 159.722656 C 238.484375 159.59375 234.933594 161.566406 231.945312 167.105469 C 230.773438 169.277344 231.605469 171.21875 233.773438 172.390625 C 235.949219 173.570312 238.652344 172.753906 239.824219 170.585938 C 241.300781 167.851562 242.277344 167.21875 242.261719 167.121094 C 245.070312 168.085938 249.660156 179.410156 251.394531 183.695312 C 252.203125 185.699219 252.941406 187.507812 253.582031 188.90625 C 254.199219 190.25 255.410156 191.101562 256.753906 191.371094 C 256.171875 213.519531 258.523438 234.042969 260.238281 245.550781 L 260.3125 246.042969 C 260.636719 248.214844 262.464844 249.789062 264.585938 249.855469 C 264.847656 249.863281 265.117188 249.847656 265.386719 249.808594 C 265.933594 249.722656 266.425781 249.523438 266.882812 249.265625 C 267.523438 249.667969 268.234375 249.96875 269.050781 249.996094 C 269.867188 250.019531 270.59375 249.765625 271.265625 249.40625 C 271.898438 249.808594 272.59375 250.105469 273.398438 250.132812 L 273.511719 250.136719 C 275.878906 250.210938 277.90625 248.273438 278.113281 245.898438 C 278.511719 241.273438 290.089844 219.386719 307.078125 197.433594 C 307.546875 197.382812 308.007812 197.316406 308.453125 197.109375 C 309.558594 196.601562 310.796875 195.96875 312.117188 195.289062 C 316.355469 193.113281 323.4375 189.476562 326.117188 191.171875 C 326.769531 191.585938 328.890625 193.652344 328.605469 202.6875 C 328.527344 205.160156 330.457031 207.21875 332.925781 207.296875 C 335.390625 207.375 337.449219 205.441406 337.527344 202.96875 C 337.84375 192.980469 335.675781 186.652344 330.894531 183.621094 C 327.464844 181.453125 323.511719 181.492188 319.585938 182.488281 C 330.320312 170.691406 342.347656 160.109375 354.644531 153.769531 C 356.84375 152.632812 357.707031 149.949219 356.574219 147.75 Z M 356.574219 147.75 " fill-opacity="1" fill-rule="nonzero"/></g></g></g></g><g clip-path="url(#dbc4a44e00)"><g clip-path="url(#5ae96acdf6)"><g clip-path="url(#d49fd4e859)"><g clip-path="url(#cdb946cdc7)"><path fill="#34495e" d="M 261.453125 239.945312 L 276.351562 217.390625 C 276.429688 217.277344 276.527344 217.1875 276.609375 217.097656 C 278.828125 219.339844 281.347656 221.390625 284.085938 223.195312 C 286.824219 225 289.703125 226.507812 292.667969 227.65625 C 292.597656 227.773438 292.550781 227.902344 292.472656 228.011719 L 277.621094 250.601562 C 274.679688 255.058594 268.664062 256.289062 264.214844 253.355469 C 259.761719 250.421875 258.523438 244.40625 261.453125 239.945312 Z M 261.453125 239.945312 " fill-opacity="1" fill-rule="nonzero"/></g></g></g></g><g clip-path="url(#95dd644ecc)"><g clip-path="url(#a2593c1b42)"><g clip-path="url(#30db50cc5e)"><g clip-path="url(#6837901bc2)"><path fill="#2c3e50" d="M 284.085938 223.191406 L 284.085938 223.195312 C 286.824219 225 289.703125 226.507812 292.667969 227.65625 C 292.597656 227.773438 292.550781 227.902344 292.472656 228.011719 L 277.621094 250.601562 C 274.679688 255.058594 268.664062 256.289062 264.214844 253.355469 Z M 284.085938 223.191406 " fill-opacity="1" fill-rule="nonzero"/></g></g></g></g><g clip-path="url(#2daeb6b810)"><g clip-path="url(#2131fdb8d2)"><g clip-path="url(#dc0c216346)"><g clip-path="url(#0fcc3cbd2d)"><path fill="#1abc9c" d="M 273.507812 158.191406 C 287.035156 137.667969 314.738281 131.972656 335.269531 145.5 C 355.816406 159.019531 361.519531 186.742188 347.984375 207.273438 C 334.445312 227.796875 306.738281 233.496094 286.207031 219.972656 C 265.679688 206.445312 259.980469 178.71875 273.507812 158.191406 Z M 338.308594 200.90625 C 348.324219 185.707031 344.097656 165.183594 328.902344 155.179688 C 313.703125 145.164062 293.191406 149.382812 283.175781 164.574219 C 273.167969 179.765625 277.386719 200.265625 292.578125 210.300781 C 307.765625 220.277344 328.289062 216.109375 338.308594 200.90625 Z M 338.308594 200.90625 " fill-opacity="1" fill-rule="nonzero"/></g></g></g></g><g clip-path="url(#fc1fc6bd56)"><g clip-path="url(#275d36bd42)"><g clip-path="url(#7a33abfb97)"><g clip-path="url(#eabb4bbdb8)"><path fill="#16a085" d="M 335.269531 145.5 C 355.816406 159.019531 361.519531 186.742188 347.984375 207.273438 C 334.445312 227.796875 306.738281 233.496094 286.207031 219.972656 L 292.578125 210.300781 C 307.769531 220.277344 328.289062 216.109375 338.308594 200.90625 C 348.324219 185.707031 344.097656 165.183594 328.902344 155.179688 L 328.894531 155.175781 Z M 335.269531 145.5 " fill-opacity="1" fill-rule="nonzero"/></g></g></g></g><g clip-path="url(#22f6848180)"><g clip-path="url(#1749b945a7)"><g clip-path="url(#62a6c38dae)"><g clip-path="url(#95bba62572)"><path fill="#95a5a6" d="M 294.957031 179.847656 C 294.566406 183.824219 291.472656 189.710938 287.988281 188.472656 C 285.230469 187.527344 285.097656 181.40625 285.804688 177.675781 C 288.921875 160.726562 308.140625 154.507812 310.476562 156.261719 C 312.777344 157.988281 296.503906 164.097656 294.957031 179.847656 Z M 294.957031 179.847656 " fill-opacity="1" fill-rule="nonzero"/></g></g></g></g><g fill="#9ae19d" fill-opacity="1"><g transform="translate(40.269788, 252.370407)"><g><path d="M 43.765625 -41.4375 L 43.765625 -16.8125 C 43.765625 -12.75 44.171875 -9.800781 44.984375 -7.96875 C 45.804688 -6.132812 47.304688 -4.898438 49.484375 -4.265625 C 51.660156 -3.640625 55.113281 -3.328125 59.84375 -3.328125 L 59.84375 0 C 46.800781 -0.289062 36.851562 -0.4375 30 -0.4375 C 25.457031 -0.4375 19.128906 -0.335938 11.015625 -0.140625 L 4.0625 0 L 4.0625 -2.890625 C 7.144531 -3.085938 9.382812 -3.472656 10.78125 -4.046875 C 12.1875 -4.628906 13.128906 -5.742188 13.609375 -7.390625 C 14.097656 -9.035156 14.34375 -11.691406 14.34375 -15.359375 L 14.34375 -87.234375 C 14.34375 -90.898438 14.078125 -93.554688 13.546875 -95.203125 C 13.015625 -96.847656 12.070312 -97.957031 10.71875 -98.53125 C 9.363281 -99.113281 7.144531 -99.503906 4.0625 -99.703125 L 4.0625 -102.59375 C 9.5625 -102.300781 17.867188 -102.15625 28.984375 -102.15625 L 45.640625 -102.296875 C 47.578125 -102.398438 49.800781 -102.453125 52.3125 -102.453125 C 66.601562 -102.453125 77.441406 -99.863281 84.828125 -94.6875 C 92.222656 -89.519531 95.921875 -82.59375 95.921875 -73.90625 C 95.921875 -68.59375 94.472656 -63.492188 91.578125 -58.609375 C 88.679688 -53.734375 83.753906 -49.648438 76.796875 -46.359375 C 69.835938 -43.078125 60.613281 -41.4375 49.125 -41.4375 Z M 51.59375 -99.703125 C 49.363281 -99.703125 47.691406 -99.363281 46.578125 -98.6875 C 45.472656 -98.007812 44.726562 -96.800781 44.34375 -95.0625 C 43.957031 -93.320312 43.765625 -90.710938 43.765625 -87.234375 L 43.765625 -44.34375 L 47.671875 -44.34375 C 54.429688 -44.34375 59.09375 -46.851562 61.65625 -51.875 C 64.21875 -56.894531 65.5 -63.707031 65.5 -72.3125 C 65.5 -81.675781 64.4375 -88.582031 62.3125 -93.03125 C 60.1875 -97.476562 56.613281 -99.703125 51.59375 -99.703125 Z M 51.59375 -99.703125 "/></g></g></g><g fill="#9ae19d" fill-opacity="1"><g transform="translate(152.279893, 252.370407)"><g><path d="M 43.765625 -41.4375 L 43.765625 -16.8125 C 43.765625 -12.75 44.171875 -9.800781 44.984375 -7.96875 C 45.804688 -6.132812 47.304688 -4.898438 49.484375 -4.265625 C 51.660156 -3.640625 55.113281 -3.328125 59.84375 -3.328125 L 59.84375 0 C 46.800781 -0.289062 36.851562 -0.4375 30 -0.4375 C 25.457031 -0.4375 19.128906 -0.335938 11.015625 -0.140625 L 4.0625 0 L 4.0625 -2.890625 C 7.144531 -3.085938 9.382812 -3.472656 10.78125 -4.046875 C 12.1875 -4.628906 13.128906 -5.742188 13.609375 -7.390625 C 14.097656 -9.035156 14.34375 -11.691406 14.34375 -15.359375 L 14.34375 -87.234375 C 14.34375 -90.898438 14.078125 -93.554688 13.546875 -95.203125 C 13.015625 -96.847656 12.070312 -97.957031 10.71875 -98.53125 C 9.363281 -99.113281 7.144531 -99.503906 4.0625 -99.703125 L 4.0625 -102.59375 C 9.5625 -102.300781 17.867188 -102.15625 28.984375 -102.15625 L 45.640625 -102.296875 C 47.578125 -102.398438 49.800781 -102.453125 52.3125 -102.453125 C 66.601562 -102.453125 77.441406 -99.863281 84.828125 -94.6875 C 92.222656 -89.519531 95.921875 -82.59375 95.921875 -73.90625 C 95.921875 -68.59375 94.472656 -63.492188 91.578125 -58.609375 C 88.679688 -53.734375 83.753906 -49.648438 76.796875 -46.359375 C 69.835938 -43.078125 60.613281 -41.4375 49.125 -41.4375 Z M 51.59375 -99.703125 C 49.363281 -99.703125 47.691406 -99.363281 46.578125 -98.6875 C 45.472656 -98.007812 44.726562 -96.800781 44.34375 -95.0625 C 43.957031 -93.320312 43.765625 -90.710938 43.765625 -87.234375 L 43.765625 -44.34375 L 47.671875 -44.34375 C 54.429688 -44.34375 59.09375 -46.851562 61.65625 -51.875 C 64.21875 -56.894531 65.5 -63.707031 65.5 -72.3125 C 65.5 -81.675781 64.4375 -88.582031 62.3125 -93.03125 C 60.1875 -97.476562 56.613281 -99.703125 51.59375 -99.703125 Z M 51.59375 -99.703125 "/></g></g></g><g clip-path="url(#de4383d8fa)"><path fill="#474a48" d="M 42.570312 190.253906 L 356.4375 190.253906 L 356.4375 213.597656 L 42.570312 213.597656 Z M 42.570312 190.253906 " fill-opacity="1" fill-rule="nonzero"/></g><g fill="#9ae19d" fill-opacity="1"><g transform="translate(48.417199, 206.440621)"><g><path d="M 6.609375 -6.078125 C 6.609375 -5.203125 6.3125 -4.53125 5.71875 -4.0625 C 5.125 -3.601562 4.28125 -3.375 3.1875 -3.375 L 2.171875 -3.375 L 2.171875 0 L 1.171875 0 L 1.171875 -8.5625 L 3.40625 -8.5625 C 5.539062 -8.5625 6.609375 -7.734375 6.609375 -6.078125 Z M 2.171875 -4.21875 L 3.078125 -4.21875 C 3.953125 -4.21875 4.585938 -4.359375 4.984375 -4.640625 C 5.378906 -4.929688 5.578125 -5.394531 5.578125 -6.03125 C 5.578125 -6.59375 5.390625 -7.007812 5.015625 -7.28125 C 4.648438 -7.5625 4.070312 -7.703125 3.28125 -7.703125 L 2.171875 -7.703125 Z M 2.171875 -4.21875 "/></g></g></g><g fill="#9ae19d" fill-opacity="1"><g transform="translate(64.161808, 206.440621)"><g><path d="M 6.5625 0 L 5.5 -2.71875 L 2.0625 -2.71875 L 1.015625 0 L 0 0 L 3.390625 -8.609375 L 4.21875 -8.609375 L 7.59375 0 Z M 5.1875 -3.625 L 4.1875 -6.28125 C 4.0625 -6.613281 3.929688 -7.023438 3.796875 -7.515625 C 3.703125 -7.140625 3.578125 -6.726562 3.421875 -6.28125 L 2.421875 -3.625 Z M 5.1875 -3.625 "/></g></g></g><g fill="#9ae19d" fill-opacity="1"><g transform="translate(80.275558, 206.440621)"><g><path d="M 8.015625 -4.359375 C 8.015625 -2.953125 7.628906 -1.875 6.859375 -1.125 C 6.097656 -0.375 4.992188 0 3.546875 0 L 1.171875 0 L 1.171875 -8.5625 L 3.796875 -8.5625 C 5.128906 -8.5625 6.164062 -8.191406 6.90625 -7.453125 C 7.644531 -6.722656 8.015625 -5.691406 8.015625 -4.359375 Z M 6.96875 -4.328125 C 6.96875 -5.441406 6.6875 -6.28125 6.125 -6.84375 C 5.5625 -7.414062 4.726562 -7.703125 3.625 -7.703125 L 2.171875 -7.703125 L 2.171875 -0.859375 L 3.390625 -0.859375 C 4.578125 -0.859375 5.46875 -1.148438 6.0625 -1.734375 C 6.664062 -2.316406 6.96875 -3.179688 6.96875 -4.328125 Z M 6.96875 -4.328125 "/></g></g></g><g fill="#9ae19d" fill-opacity="1"><g transform="translate(97.543604, 206.440621)"><g><path d="M 8.015625 -4.359375 C 8.015625 -2.953125 7.628906 -1.875 6.859375 -1.125 C 6.097656 -0.375 4.992188 0 3.546875 0 L 1.171875 0 L 1.171875 -8.5625 L 3.796875 -8.5625 C 5.128906 -8.5625 6.164062 -8.191406 6.90625 -7.453125 C 7.644531 -6.722656 8.015625 -5.691406 8.015625 -4.359375 Z M 6.96875 -4.328125 C 6.96875 -5.441406 6.6875 -6.28125 6.125 -6.84375 C 5.5625 -7.414062 4.726562 -7.703125 3.625 -7.703125 L 2.171875 -7.703125 L 2.171875 -0.859375 L 3.390625 -0.859375 C 4.578125 -0.859375 5.46875 -1.148438 6.0625 -1.734375 C 6.664062 -2.316406 6.96875 -3.179688 6.96875 -4.328125 Z M 6.96875 -4.328125 "/></g></g></g><g fill="#9ae19d" fill-opacity="1"><g transform="translate(114.81165, 206.440621)"><g><path d="M 3.359375 -4.28125 L 5.640625 -8.5625 L 6.71875 -8.5625 L 3.859375 -3.328125 L 3.859375 0 L 2.859375 0 L 2.859375 -3.28125 L 0 -8.5625 L 1.09375 -8.5625 Z M 3.359375 -4.28125 "/></g></g></g><g fill="#9ae19d" fill-opacity="1"><g transform="translate(130.052353, 206.440621)"><g><path d="M 6.609375 -6.078125 C 6.609375 -5.203125 6.3125 -4.53125 5.71875 -4.0625 C 5.125 -3.601562 4.28125 -3.375 3.1875 -3.375 L 2.171875 -3.375 L 2.171875 0 L 1.171875 0 L 1.171875 -8.5625 L 3.40625 -8.5625 C 5.539062 -8.5625 6.609375 -7.734375 6.609375 -6.078125 Z M 2.171875 -4.21875 L 3.078125 -4.21875 C 3.953125 -4.21875 4.585938 -4.359375 4.984375 -4.640625 C 5.378906 -4.929688 5.578125 -5.394531 5.578125 -6.03125 C 5.578125 -6.59375 5.390625 -7.007812 5.015625 -7.28125 C 4.648438 -7.5625 4.070312 -7.703125 3.28125 -7.703125 L 2.171875 -7.703125 Z M 2.171875 -4.21875 "/></g></g></g><g fill="#9ae19d" fill-opacity="1"><g transform="translate(145.796961, 206.440621)"><g><path d="M 1.171875 0 L 1.171875 -8.5625 L 2.171875 -8.5625 L 2.171875 -0.90625 L 5.953125 -0.90625 L 5.953125 0 Z M 1.171875 0 "/></g></g></g><g fill="#9ae19d" fill-opacity="1"><g transform="translate(160.545476, 206.440621)"><g><path d="M 6.5625 0 L 5.5 -2.71875 L 2.0625 -2.71875 L 1.015625 0 L 0 0 L 3.390625 -8.609375 L 4.21875 -8.609375 L 7.59375 0 Z M 5.1875 -3.625 L 4.1875 -6.28125 C 4.0625 -6.613281 3.929688 -7.023438 3.796875 -7.515625 C 3.703125 -7.140625 3.578125 -6.726562 3.421875 -6.28125 L 2.421875 -3.625 Z M 5.1875 -3.625 "/></g></g></g><g fill="#9ae19d" fill-opacity="1"><g transform="translate(176.659226, 206.440621)"><g><path d="M 7.875 0 L 6.734375 0 L 2.046875 -7.1875 L 2 -7.1875 C 2.0625 -6.34375 2.09375 -5.570312 2.09375 -4.875 L 2.09375 0 L 1.171875 0 L 1.171875 -8.5625 L 2.296875 -8.5625 L 6.96875 -1.40625 L 7.015625 -1.40625 C 7.015625 -1.507812 7 -1.847656 6.96875 -2.421875 C 6.9375 -2.992188 6.925781 -3.40625 6.9375 -3.65625 L 6.9375 -8.5625 L 7.875 -8.5625 Z M 7.875 0 "/></g></g></g><g fill="#9ae19d" fill-opacity="1"><g transform="translate(194.226101, 206.440621)"><g><path d="M 3.8125 0 L 2.8125 0 L 2.8125 -7.6875 L 0.109375 -7.6875 L 0.109375 -8.5625 L 6.53125 -8.5625 L 6.53125 -7.6875 L 3.8125 -7.6875 Z M 3.8125 0 "/></g></g></g><g fill="#9ae19d" fill-opacity="1"><g transform="translate(209.384772, 206.440621)"><g><path d="M 6.609375 -6.078125 C 6.609375 -5.203125 6.3125 -4.53125 5.71875 -4.0625 C 5.125 -3.601562 4.28125 -3.375 3.1875 -3.375 L 2.171875 -3.375 L 2.171875 0 L 1.171875 0 L 1.171875 -8.5625 L 3.40625 -8.5625 C 5.539062 -8.5625 6.609375 -7.734375 6.609375 -6.078125 Z M 2.171875 -4.21875 L 3.078125 -4.21875 C 3.953125 -4.21875 4.585938 -4.359375 4.984375 -4.640625 C 5.378906 -4.929688 5.578125 -5.394531 5.578125 -6.03125 C 5.578125 -6.59375 5.390625 -7.007812 5.015625 -7.28125 C 4.648438 -7.5625 4.070312 -7.703125 3.28125 -7.703125 L 2.171875 -7.703125 Z M 2.171875 -4.21875 "/></g></g></g><g fill="#9ae19d" fill-opacity="1"><g transform="translate(225.129381, 206.440621)"><g><path d="M 2.171875 -3.5625 L 2.171875 0 L 1.171875 0 L 1.171875 -8.5625 L 3.53125 -8.5625 C 4.582031 -8.5625 5.359375 -8.359375 5.859375 -7.953125 C 6.359375 -7.554688 6.609375 -6.953125 6.609375 -6.140625 C 6.609375 -5.015625 6.035156 -4.25 4.890625 -3.84375 L 7.21875 0 L 6.03125 0 L 3.96875 -3.5625 Z M 2.171875 -4.421875 L 3.546875 -4.421875 C 4.242188 -4.421875 4.753906 -4.554688 5.078125 -4.828125 C 5.410156 -5.109375 5.578125 -5.53125 5.578125 -6.09375 C 5.578125 -6.65625 5.410156 -7.0625 5.078125 -7.3125 C 4.742188 -7.5625 4.207031 -7.6875 3.46875 -7.6875 L 2.171875 -7.6875 Z M 2.171875 -4.421875 "/></g></g></g><g fill="#9ae19d" fill-opacity="1"><g transform="translate(241.067349, 206.440621)"><g><path d="M 8.609375 -4.296875 C 8.609375 -2.921875 8.257812 -1.835938 7.5625 -1.046875 C 6.875 -0.265625 5.914062 0.125 4.6875 0.125 C 3.425781 0.125 2.453125 -0.257812 1.765625 -1.03125 C 1.078125 -1.8125 0.734375 -2.90625 0.734375 -4.3125 C 0.734375 -5.707031 1.078125 -6.785156 1.765625 -7.546875 C 2.453125 -8.316406 3.425781 -8.703125 4.6875 -8.703125 C 5.925781 -8.703125 6.890625 -8.3125 7.578125 -7.53125 C 8.265625 -6.75 8.609375 -5.671875 8.609375 -4.296875 Z M 1.78125 -4.296875 C 1.78125 -3.140625 2.023438 -2.257812 2.515625 -1.65625 C 3.015625 -1.050781 3.738281 -0.75 4.6875 -0.75 C 5.632812 -0.75 6.347656 -1.046875 6.828125 -1.640625 C 7.316406 -2.242188 7.5625 -3.128906 7.5625 -4.296875 C 7.5625 -5.453125 7.316406 -6.328125 6.828125 -6.921875 C 6.347656 -7.515625 5.632812 -7.8125 4.6875 -7.8125 C 3.738281 -7.8125 3.015625 -7.507812 2.515625 -6.90625 C 2.023438 -6.3125 1.78125 -5.441406 1.78125 -4.296875 Z M 1.78125 -4.296875 "/></g></g></g><g fill="#9ae19d" fill-opacity="1"><g transform="translate(258.93304, 206.440621)"><g><path d="M 4.953125 -4.484375 L 7.859375 -4.484375 L 7.859375 -0.328125 C 7.398438 -0.179688 6.9375 -0.0703125 6.46875 0 C 6 0.0820312 5.457031 0.125 4.84375 0.125 C 3.550781 0.125 2.539062 -0.257812 1.8125 -1.03125 C 1.09375 -1.8125 0.734375 -2.894531 0.734375 -4.28125 C 0.734375 -5.175781 0.910156 -5.957031 1.265625 -6.625 C 1.628906 -7.289062 2.144531 -7.800781 2.8125 -8.15625 C 3.488281 -8.507812 4.273438 -8.6875 5.171875 -8.6875 C 6.085938 -8.6875 6.941406 -8.519531 7.734375 -8.1875 L 7.34375 -7.3125 C 6.570312 -7.632812 5.828125 -7.796875 5.109375 -7.796875 C 4.066406 -7.796875 3.25 -7.484375 2.65625 -6.859375 C 2.070312 -6.242188 1.78125 -5.382812 1.78125 -4.28125 C 1.78125 -3.125 2.0625 -2.242188 2.625 -1.640625 C 3.195312 -1.046875 4.03125 -0.75 5.125 -0.75 C 5.71875 -0.75 6.296875 -0.820312 6.859375 -0.96875 L 6.859375 -3.59375 L 4.953125 -3.59375 Z M 4.953125 -4.484375 "/></g></g></g><g fill="#9ae19d" fill-opacity="1"><g transform="translate(276.189356, 206.440621)"><g><path d="M 7.875 0 L 6.734375 0 L 2.046875 -7.1875 L 2 -7.1875 C 2.0625 -6.34375 2.09375 -5.570312 2.09375 -4.875 L 2.09375 0 L 1.171875 0 L 1.171875 -8.5625 L 2.296875 -8.5625 L 6.96875 -1.40625 L 7.015625 -1.40625 C 7.015625 -1.507812 7 -1.847656 6.96875 -2.421875 C 6.9375 -2.992188 6.925781 -3.40625 6.9375 -3.65625 L 6.9375 -8.5625 L 7.875 -8.5625 Z M 7.875 0 "/></g></g></g><g fill="#9ae19d" fill-opacity="1"><g transform="translate(293.756219, 206.440621)"><g><path d="M 8.609375 -4.296875 C 8.609375 -2.921875 8.257812 -1.835938 7.5625 -1.046875 C 6.875 -0.265625 5.914062 0.125 4.6875 0.125 C 3.425781 0.125 2.453125 -0.257812 1.765625 -1.03125 C 1.078125 -1.8125 0.734375 -2.90625 0.734375 -4.3125 C 0.734375 -5.707031 1.078125 -6.785156 1.765625 -7.546875 C 2.453125 -8.316406 3.425781 -8.703125 4.6875 -8.703125 C 5.925781 -8.703125 6.890625 -8.3125 7.578125 -7.53125 C 8.265625 -6.75 8.609375 -5.671875 8.609375 -4.296875 Z M 1.78125 -4.296875 C 1.78125 -3.140625 2.023438 -2.257812 2.515625 -1.65625 C 3.015625 -1.050781 3.738281 -0.75 4.6875 -0.75 C 5.632812 -0.75 6.347656 -1.046875 6.828125 -1.640625 C 7.316406 -2.242188 7.5625 -3.128906 7.5625 -4.296875 C 7.5625 -5.453125 7.316406 -6.328125 6.828125 -6.921875 C 6.347656 -7.515625 5.632812 -7.8125 4.6875 -7.8125 C 3.738281 -7.8125 3.015625 -7.507812 2.515625 -6.90625 C 2.023438 -6.3125 1.78125 -5.441406 1.78125 -4.296875 Z M 1.78125 -4.296875 "/></g></g></g><g fill="#9ae19d" fill-opacity="1"><g transform="translate(311.62191, 206.440621)"><g><path d="M 6.015625 -2.28125 C 6.015625 -1.53125 5.738281 -0.941406 5.1875 -0.515625 C 4.644531 -0.0859375 3.90625 0.125 2.96875 0.125 C 1.945312 0.125 1.164062 -0.0078125 0.625 -0.28125 L 0.625 -1.234375 C 0.976562 -1.085938 1.359375 -0.96875 1.765625 -0.875 C 2.179688 -0.789062 2.59375 -0.75 3 -0.75 C 3.664062 -0.75 4.164062 -0.875 4.5 -1.125 C 4.832031 -1.382812 5 -1.738281 5 -2.1875 C 5 -2.476562 4.9375 -2.71875 4.8125 -2.90625 C 4.695312 -3.101562 4.5 -3.28125 4.21875 -3.4375 C 3.945312 -3.601562 3.523438 -3.785156 2.953125 -3.984375 C 2.160156 -4.265625 1.59375 -4.597656 1.25 -4.984375 C 0.90625 -5.378906 0.734375 -5.894531 0.734375 -6.53125 C 0.734375 -7.1875 0.976562 -7.707031 1.46875 -8.09375 C 1.96875 -8.488281 2.628906 -8.6875 3.453125 -8.6875 C 4.296875 -8.6875 5.078125 -8.53125 5.796875 -8.21875 L 5.484375 -7.359375 C 4.773438 -7.648438 4.085938 -7.796875 3.421875 -7.796875 C 2.890625 -7.796875 2.472656 -7.679688 2.171875 -7.453125 C 1.878906 -7.234375 1.734375 -6.921875 1.734375 -6.515625 C 1.734375 -6.222656 1.785156 -5.976562 1.890625 -5.78125 C 2.003906 -5.59375 2.191406 -5.421875 2.453125 -5.265625 C 2.710938 -5.109375 3.113281 -4.929688 3.65625 -4.734375 C 4.550781 -4.421875 5.164062 -4.078125 5.5 -3.703125 C 5.84375 -3.335938 6.015625 -2.863281 6.015625 -2.28125 Z M 6.015625 -2.28125 "/></g></g></g><g fill="#9ae19d" fill-opacity="1"><g transform="translate(326.727835, 206.440621)"><g><path d="M 1.171875 0 L 1.171875 -8.5625 L 2.171875 -8.5625 L 2.171875 0 Z M 1.171875 0 "/></g></g></g><g fill="#9ae19d" fill-opacity="1"><g transform="translate(338.593527, 206.440621)"><g><path d="M 6.015625 -2.28125 C 6.015625 -1.53125 5.738281 -0.941406 5.1875 -0.515625 C 4.644531 -0.0859375 3.90625 0.125 2.96875 0.125 C 1.945312 0.125 1.164062 -0.0078125 0.625 -0.28125 L 0.625 -1.234375 C 0.976562 -1.085938 1.359375 -0.96875 1.765625 -0.875 C 2.179688 -0.789062 2.59375 -0.75 3 -0.75 C 3.664062 -0.75 4.164062 -0.875 4.5 -1.125 C 4.832031 -1.382812 5 -1.738281 5 -2.1875 C 5 -2.476562 4.9375 -2.71875 4.8125 -2.90625 C 4.695312 -3.101562 4.5 -3.28125 4.21875 -3.4375 C 3.945312 -3.601562 3.523438 -3.785156 2.953125 -3.984375 C 2.160156 -4.265625 1.59375 -4.597656 1.25 -4.984375 C 0.90625 -5.378906 0.734375 -5.894531 0.734375 -6.53125 C 0.734375 -7.1875 0.976562 -7.707031 1.46875 -8.09375 C 1.96875 -8.488281 2.628906 -8.6875 3.453125 -8.6875 C 4.296875 -8.6875 5.078125 -8.53125 5.796875 -8.21875 L 5.484375 -7.359375 C 4.773438 -7.648438 4.085938 -7.796875 3.421875 -7.796875 C 2.890625 -7.796875 2.472656 -7.679688 2.171875 -7.453125 C 1.878906 -7.234375 1.734375 -6.921875 1.734375 -6.515625 C 1.734375 -6.222656 1.785156 -5.976562 1.890625 -5.78125 C 2.003906 -5.59375 2.191406 -5.421875 2.453125 -5.265625 C 2.710938 -5.109375 3.113281 -4.929688 3.65625 -4.734375 C 4.550781 -4.421875 5.164062 -4.078125 5.5 -3.703125 C 5.84375 -3.335938 6.015625 -2.863281 6.015625 -2.28125 Z M 6.015625 -2.28125 "/></g></g></g></svg>