<svg xmlns="http://www.w3.org/2000/svg" xmlns:xlink="http://www.w3.org/1999/xlink" width="500" zoomAndPan="magnify" viewBox="0 0 375 374.999991" height="500" preserveAspectRatio="xMidYMid meet" version="1.0"><defs><g/><clipPath id="500f7a8663"><path d="M 285 97 L 339 97 L 339 194 L 285 194 Z M 285 97 " clip-rule="nonzero"/></clipPath><clipPath id="266d93dd81"><path d="M 233.09375 95.03125 L 359.78125 99.035156 L 354.925781 252.707031 L 228.238281 248.707031 Z M 233.09375 95.03125 " clip-rule="nonzero"/></clipPath><clipPath id="165b7dfc6b"><path d="M 233.09375 95.03125 L 359.78125 99.035156 L 354.925781 252.707031 L 228.238281 248.707031 Z M 233.09375 95.03125 " clip-rule="nonzero"/></clipPath><clipPath id="97f4a7cf8a"><path d="M 233.09375 95.03125 L 359.78125 99.035156 L 354.925781 252.707031 L 228.238281 248.707031 Z M 233.09375 95.03125 " clip-rule="nonzero"/></clipPath><clipPath id="7e8cc2e02a"><path d="M 231 100 L 358 100 L 358 251 L 231 251 Z M 231 100 " clip-rule="nonzero"/></clipPath><clipPath id="e0d45f2bfb"><path d="M 233.09375 95.03125 L 359.78125 99.035156 L 354.925781 252.707031 L 228.238281 248.707031 Z M 233.09375 95.03125 " clip-rule="nonzero"/></clipPath><clipPath id="d28ad3a0bc"><path d="M 233.09375 95.03125 L 359.78125 99.035156 L 354.925781 252.707031 L 228.238281 248.707031 Z M 233.09375 95.03125 " clip-rule="nonzero"/></clipPath><clipPath id="4c1cb55efc"><path d="M 233.09375 95.03125 L 359.78125 99.035156 L 354.925781 252.707031 L 228.238281 248.707031 Z M 233.09375 95.03125 " clip-rule="nonzero"/></clipPath><clipPath id="90f893c55a"><path d="M 259 217 L 293 217 L 293 255 L 259 255 Z M 259 217 " clip-rule="nonzero"/></clipPath><clipPath id="0d5215cd7f"><path d="M 238.628906 147.617188 L 348.824219 124.964844 L 371.476562 235.160156 L 261.28125 257.8125 Z M 238.628906 147.617188 " clip-rule="nonzero"/></clipPath><clipPath id="54d9addfcd"><path d="M 238.628906 147.617188 L 348.824219 124.964844 L 371.476562 235.160156 L 261.28125 257.8125 Z M 238.628906 147.617188 " clip-rule="nonzero"/></clipPath><clipPath id="8c586ffa17"><path d="M 238.628906 147.617188 L 348.824219 124.964844 L 371.476562 235.160156 L 261.28125 257.8125 Z M 238.628906 147.617188 " clip-rule="nonzero"/></clipPath><clipPath id="bbabdb2674"><path d="M 264 223 L 293 223 L 293 255 L 264 255 Z M 264 223 " clip-rule="nonzero"/></clipPath><clipPath id="2a8f042af5"><path d="M 238.628906 147.617188 L 348.824219 124.964844 L 371.476562 235.160156 L 261.28125 257.8125 Z M 238.628906 147.617188 " clip-rule="nonzero"/></clipPath><clipPath id="4afd58a741"><path d="M 238.628906 147.617188 L 348.824219 124.964844 L 371.476562 235.160156 L 261.28125 257.8125 Z M 238.628906 147.617188 " clip-rule="nonzero"/></clipPath><clipPath id="f46d16f321"><path d="M 238.628906 147.617188 L 348.824219 124.964844 L 371.476562 235.160156 L 261.28125 257.8125 Z M 238.628906 147.617188 " clip-rule="nonzero"/></clipPath><clipPath id="82d7a0493e"><path d="M 266 138 L 356 138 L 356 228 L 266 228 Z M 266 138 " clip-rule="nonzero"/></clipPath><clipPath id="cc4c778a2c"><path d="M 238.628906 147.617188 L 348.824219 124.964844 L 371.476562 235.160156 L 261.28125 257.8125 Z M 238.628906 147.617188 " clip-rule="nonzero"/></clipPath><clipPath id="887df55a5e"><path d="M 238.628906 147.617188 L 348.824219 124.964844 L 371.476562 235.160156 L 261.28125 257.8125 Z M 238.628906 147.617188 " clip-rule="nonzero"/></clipPath><clipPath id="179e098484"><path d="M 238.628906 147.617188 L 348.824219 124.964844 L 371.476562 235.160156 L 261.28125 257.8125 Z M 238.628906 147.617188 " clip-rule="nonzero"/></clipPath><clipPath id="3e157ff91f"><path d="M 286 145 L 356 145 L 356 228 L 286 228 Z M 286 145 " clip-rule="nonzero"/></clipPath><clipPath id="333c6768a8"><path d="M 238.628906 147.617188 L 348.824219 124.964844 L 371.476562 235.160156 L 261.28125 257.8125 Z M 238.628906 147.617188 " clip-rule="nonzero"/></clipPath><clipPath id="a46bb88de2"><path d="M 238.628906 147.617188 L 348.824219 124.964844 L 371.476562 235.160156 L 261.28125 257.8125 Z M 238.628906 147.617188 " clip-rule="nonzero"/></clipPath><clipPath id="83d4931b7f"><path d="M 238.628906 147.617188 L 348.824219 124.964844 L 371.476562 235.160156 L 261.28125 257.8125 Z M 238.628906 147.617188 " clip-rule="nonzero"/></clipPath><clipPath id="dcc297edec"><path d="M 285 155 L 311 155 L 311 189 L 285 189 Z M 285 155 " clip-rule="nonzero"/></clipPath><clipPath id="1d99f8f9a4"><path d="M 238.628906 147.617188 L 348.824219 124.964844 L 371.476562 235.160156 L 261.28125 257.8125 Z M 238.628906 147.617188 " clip-rule="nonzero"/></clipPath><clipPath id="b8a328c136"><path d="M 238.628906 147.617188 L 348.824219 124.964844 L 371.476562 235.160156 L 261.28125 257.8125 Z M 238.628906 147.617188 " clip-rule="nonzero"/></clipPath><clipPath id="1d84055031"><path d="M 238.628906 147.617188 L 348.824219 124.964844 L 371.476562 235.160156 L 261.28125 257.8125 Z M 238.628906 147.617188 " clip-rule="nonzero"/></clipPath></defs><g clip-path="url(#500f7a8663)"><g clip-path="url(#266d93dd81)"><g clip-path="url(#165b7dfc6b)"><g clip-path="url(#97f4a7cf8a)"><path fill="#ffcc4d" d="M 320.25 97.875 C 311.988281 97.613281 301.09375 105.539062 291.820312 118.558594 C 280.96875 133.789062 286.203125 145.160156 290.414062 154.296875 C 291.058594 155.703125 292.386719 156.671875 293.925781 156.863281 C 294.054688 156.871094 294.191406 156.882812 294.324219 156.886719 C 295.71875 156.933594 297.066406 156.316406 297.949219 155.214844 C 309.082031 141.289062 326.816406 119.476562 330.019531 116.460938 C 330.886719 115.652344 331.390625 114.527344 331.425781 113.34375 C 331.777344 102.210938 325.882812 98.054688 320.25 97.875 Z M 329.589844 138.394531 C 324.191406 138.222656 317.941406 143.089844 308.691406 154.660156 C 298.8125 167.007812 296.960938 178.046875 302.667969 190.453125 C 303.300781 191.824219 304.578125 192.78125 306.066406 193 C 306.234375 193.027344 306.410156 193.042969 306.578125 193.050781 C 307.894531 193.089844 309.171875 192.546875 310.058594 191.554688 C 318.019531 182.582031 334.011719 164.730469 337.53125 161.414062 C 338.398438 160.601562 338.902344 159.480469 338.9375 158.296875 C 339.09375 153.449219 339.558594 138.710938 329.589844 138.394531 Z M 329.589844 138.394531 " fill-opacity="1" fill-rule="nonzero"/></g></g></g></g><g clip-path="url(#7e8cc2e02a)"><g clip-path="url(#e0d45f2bfb)"><g clip-path="url(#d28ad3a0bc)"><g clip-path="url(#4c1cb55efc)"><path fill="#77b255" d="M 356.574219 147.75 C 355.445312 145.5625 352.75 144.707031 350.566406 145.839844 C 318.007812 162.621094 287.074219 207.109375 274.773438 231.132812 C 279.953125 185.707031 302.449219 142.375 339.226562 107.808594 C 341.027344 106.117188 341.113281 103.292969 339.425781 101.492188 C 337.734375 99.691406 334.917969 99.601562 333.117188 101.292969 C 296.464844 135.742188 273.386719 178.628906 266.695312 223.867188 C 264.492188 198.324219 264.296875 161.589844 276.738281 135.789062 C 277.8125 133.566406 276.878906 130.894531 274.660156 129.820312 C 272.441406 128.742188 269.769531 129.679688 268.699219 131.898438 C 262.363281 145.039062 259.105469 160.667969 257.640625 176.308594 C 253.964844 167.765625 249.570312 159.945312 242.75 159.730469 L 242.542969 159.722656 C 238.484375 159.59375 234.933594 161.566406 231.945312 167.105469 C 230.773438 169.277344 231.605469 171.21875 233.773438 172.390625 C 235.949219 173.570312 238.652344 172.753906 239.824219 170.585938 C 241.300781 167.851562 242.277344 167.21875 242.261719 167.121094 C 245.070312 168.085938 249.660156 179.410156 251.394531 183.695312 C 252.203125 185.699219 252.941406 187.507812 253.582031 188.90625 C 254.199219 190.25 255.410156 191.101562 256.753906 191.371094 C 256.171875 213.519531 258.523438 234.042969 260.238281 245.550781 L 260.3125 246.042969 C 260.636719 248.214844 262.464844 249.789062 264.585938 249.855469 C 264.847656 249.863281 265.117188 249.847656 265.386719 249.808594 C 265.933594 249.722656 266.425781 249.523438 266.882812 249.265625 C 267.523438 249.667969 268.234375 249.96875 269.050781 249.996094 C 269.867188 250.019531 270.59375 249.765625 271.265625 249.40625 C 271.898438 249.808594 272.59375 250.105469 273.398438 250.132812 L 273.511719 250.136719 C 275.878906 250.210938 277.90625 248.273438 278.113281 245.898438 C 278.511719 241.273438 290.089844 219.386719 307.078125 197.433594 C 307.546875 197.382812 308.007812 197.316406 308.453125 197.109375 C 309.558594 196.601562 310.796875 195.96875 312.117188 195.289062 C 316.355469 193.113281 323.4375 189.476562 326.117188 191.171875 C 326.769531 191.585938 328.890625 193.652344 328.605469 202.6875 C 328.527344 205.160156 330.457031 207.21875 332.925781 207.296875 C 335.390625 207.375 337.449219 205.441406 337.527344 202.96875 C 337.84375 192.980469 335.675781 186.652344 330.894531 183.621094 C 327.464844 181.453125 323.511719 181.492188 319.585938 182.488281 C 330.320312 170.691406 342.347656 160.109375 354.644531 153.769531 C 356.84375 152.632812 357.707031 149.949219 356.574219 147.75 Z M 356.574219 147.75 " fill-opacity="1" fill-rule="nonzero"/></g></g></g></g><g clip-path="url(#90f893c55a)"><g clip-path="url(#0d5215cd7f)"><g clip-path="url(#54d9addfcd)"><g clip-path="url(#8c586ffa17)"><path fill="#34495e" d="M 261.453125 239.945312 L 276.351562 217.390625 C 276.429688 217.277344 276.527344 217.1875 276.609375 217.097656 C 278.828125 219.339844 281.347656 221.390625 284.085938 223.195312 C 286.824219 225 289.703125 226.507812 292.667969 227.65625 C 292.597656 227.773438 292.550781 227.902344 292.472656 228.011719 L 277.621094 250.601562 C 274.679688 255.058594 268.664062 256.289062 264.214844 253.355469 C 259.761719 250.421875 258.523438 244.40625 261.453125 239.945312 Z M 261.453125 239.945312 " fill-opacity="1" fill-rule="nonzero"/></g></g></g></g><g clip-path="url(#bbabdb2674)"><g clip-path="url(#2a8f042af5)"><g clip-path="url(#4afd58a741)"><g clip-path="url(#f46d16f321)"><path fill="#2c3e50" d="M 284.085938 223.191406 L 284.085938 223.195312 C 286.824219 225 289.703125 226.507812 292.667969 227.65625 C 292.597656 227.773438 292.550781 227.902344 292.472656 228.011719 L 277.621094 250.601562 C 274.679688 255.058594 268.664062 256.289062 264.214844 253.355469 Z M 284.085938 223.191406 " fill-opacity="1" fill-rule="nonzero"/></g></g></g></g><g clip-path="url(#82d7a0493e)"><g clip-path="url(#cc4c778a2c)"><g clip-path="url(#887df55a5e)"><g clip-path="url(#179e098484)"><path fill="#1abc9c" d="M 273.507812 158.191406 C 287.035156 137.667969 314.738281 131.972656 335.269531 145.5 C 355.816406 159.019531 361.519531 186.742188 347.984375 207.273438 C 334.445312 227.796875 306.738281 233.496094 286.207031 219.972656 C 265.679688 206.445312 259.980469 178.71875 273.507812 158.191406 Z M 338.308594 200.90625 C 348.324219 185.707031 344.097656 165.183594 328.902344 155.179688 C 313.703125 145.164062 293.191406 149.382812 283.175781 164.574219 C 273.167969 179.765625 277.386719 200.265625 292.578125 210.300781 C 307.765625 220.277344 328.289062 216.109375 338.308594 200.90625 Z M 338.308594 200.90625 " fill-opacity="1" fill-rule="nonzero"/></g></g></g></g><g clip-path="url(#3e157ff91f)"><g clip-path="url(#333c6768a8)"><g clip-path="url(#a46bb88de2)"><g clip-path="url(#83d4931b7f)"><path fill="#16a085" d="M 335.269531 145.5 C 355.816406 159.019531 361.519531 186.742188 347.984375 207.273438 C 334.445312 227.796875 306.738281 233.496094 286.207031 219.972656 L 292.578125 210.300781 C 307.769531 220.277344 328.289062 216.109375 338.308594 200.90625 C 348.324219 185.707031 344.097656 165.183594 328.902344 155.179688 L 328.894531 155.175781 Z M 335.269531 145.5 " fill-opacity="1" fill-rule="nonzero"/></g></g></g></g><g clip-path="url(#dcc297edec)"><g clip-path="url(#1d99f8f9a4)"><g clip-path="url(#b8a328c136)"><g clip-path="url(#1d84055031)"><path fill="#95a5a6" d="M 294.957031 179.847656 C 294.566406 183.824219 291.472656 189.710938 287.988281 188.472656 C 285.230469 187.527344 285.097656 181.40625 285.804688 177.675781 C 288.921875 160.726562 308.140625 154.507812 310.476562 156.261719 C 312.777344 157.988281 296.503906 164.097656 294.957031 179.847656 Z M 294.957031 179.847656 " fill-opacity="1" fill-rule="nonzero"/></g></g></g></g><g fill="#9ae19d" fill-opacity="1"><g transform="translate(40.269788, 252.370407)"><g><path d="M 43.765625 -41.4375 L 43.765625 -16.8125 C 43.765625 -12.75 44.171875 -9.800781 44.984375 -7.96875 C 45.804688 -6.132812 47.304688 -4.898438 49.484375 -4.265625 C 51.660156 -3.640625 55.113281 -3.328125 59.84375 -3.328125 L 59.84375 0 C 46.800781 -0.289062 36.851562 -0.4375 30 -0.4375 C 25.457031 -0.4375 19.128906 -0.335938 11.015625 -0.140625 L 4.0625 0 L 4.0625 -2.890625 C 7.144531 -3.085938 9.382812 -3.472656 10.78125 -4.046875 C 12.1875 -4.628906 13.128906 -5.742188 13.609375 -7.390625 C 14.097656 -9.035156 14.34375 -11.691406 14.34375 -15.359375 L 14.34375 -87.234375 C 14.34375 -90.898438 14.078125 -93.554688 13.546875 -95.203125 C 13.015625 -96.847656 12.070312 -97.957031 10.71875 -98.53125 C 9.363281 -99.113281 7.144531 -99.503906 4.0625 -99.703125 L 4.0625 -102.59375 C 9.5625 -102.300781 17.867188 -102.15625 28.984375 -102.15625 L 45.640625 -102.296875 C 47.578125 -102.398438 49.800781 -102.453125 52.3125 -102.453125 C 66.601562 -102.453125 77.441406 -99.863281 84.828125 -94.6875 C 92.222656 -89.519531 95.921875 -82.59375 95.921875 -73.90625 C 95.921875 -68.59375 94.472656 -63.492188 91.578125 -58.609375 C 88.679688 -53.734375 83.753906 -49.648438 76.796875 -46.359375 C 69.835938 -43.078125 60.613281 -41.4375 49.125 -41.4375 Z M 51.59375 -99.703125 C 49.363281 -99.703125 47.691406 -99.363281 46.578125 -98.6875 C 45.472656 -98.007812 44.726562 -96.800781 44.34375 -95.0625 C 43.957031 -93.320312 43.765625 -90.710938 43.765625 -87.234375 L 43.765625 -44.34375 L 47.671875 -44.34375 C 54.429688 -44.34375 59.09375 -46.851562 61.65625 -51.875 C 64.21875 -56.894531 65.5 -63.707031 65.5 -72.3125 C 65.5 -81.675781 64.4375 -88.582031 62.3125 -93.03125 C 60.1875 -97.476562 56.613281 -99.703125 51.59375 -99.703125 Z M 51.59375 -99.703125 "/></g></g></g><g fill="#9ae19d" fill-opacity="1"><g transform="translate(152.279893, 252.370407)"><g><path d="M 43.765625 -41.4375 L 43.765625 -16.8125 C 43.765625 -12.75 44.171875 -9.800781 44.984375 -7.96875 C 45.804688 -6.132812 47.304688 -4.898438 49.484375 -4.265625 C 51.660156 -3.640625 55.113281 -3.328125 59.84375 -3.328125 L 59.84375 0 C 46.800781 -0.289062 36.851562 -0.4375 30 -0.4375 C 25.457031 -0.4375 19.128906 -0.335938 11.015625 -0.140625 L 4.0625 0 L 4.0625 -2.890625 C 7.144531 -3.085938 9.382812 -3.472656 10.78125 -4.046875 C 12.1875 -4.628906 13.128906 -5.742188 13.609375 -7.390625 C 14.097656 -9.035156 14.34375 -11.691406 14.34375 -15.359375 L 14.34375 -87.234375 C 14.34375 -90.898438 14.078125 -93.554688 13.546875 -95.203125 C 13.015625 -96.847656 12.070312 -97.957031 10.71875 -98.53125 C 9.363281 -99.113281 7.144531 -99.503906 4.0625 -99.703125 L 4.0625 -102.59375 C 9.5625 -102.300781 17.867188 -102.15625 28.984375 -102.15625 L 45.640625 -102.296875 C 47.578125 -102.398438 49.800781 -102.453125 52.3125 -102.453125 C 66.601562 -102.453125 77.441406 -99.863281 84.828125 -94.6875 C 92.222656 -89.519531 95.921875 -82.59375 95.921875 -73.90625 C 95.921875 -68.59375 94.472656 -63.492188 91.578125 -58.609375 C 88.679688 -53.734375 83.753906 -49.648438 76.796875 -46.359375 C 69.835938 -43.078125 60.613281 -41.4375 49.125 -41.4375 Z M 51.59375 -99.703125 C 49.363281 -99.703125 47.691406 -99.363281 46.578125 -98.6875 C 45.472656 -98.007812 44.726562 -96.800781 44.34375 -95.0625 C 43.957031 -93.320312 43.765625 -90.710938 43.765625 -87.234375 L 43.765625 -44.34375 L 47.671875 -44.34375 C 54.429688 -44.34375 59.09375 -46.851562 61.65625 -51.875 C 64.21875 -56.894531 65.5 -63.707031 65.5 -72.3125 C 65.5 -81.675781 64.4375 -88.582031 62.3125 -93.03125 C 60.1875 -97.476562 56.613281 -99.703125 51.59375 -99.703125 Z M 51.59375 -99.703125 "/></g></g></g></svg>